<svg width="102" height="70" viewBox="0 0 102 70" fill="none" xmlns="http://www.w3.org/2000/svg">
<g filter="url(#filter0_d_322_237)">
<rect x="22" y="14" width="42" height="42" rx="21" fill="#43AC47" shape-rendering="crispEdges"/>
<path d="M53.4717 34.0071L52.2377 31.27L49.5006 30.036L52.2377 28.8021L53.4717 26.0649L54.7056 28.8021L57.4428 30.036L54.7056 31.27L53.4717 34.0071ZM53.4717 49.8917L52.2377 47.1546L49.5006 45.9206L52.2377 44.6867L53.4717 41.9495L54.7056 44.6867L57.4428 45.9206L54.7056 47.1546L53.4717 49.8917ZM42.2538 45.8981L39.7858 40.4463L34.334 37.9783L39.7858 35.5104L42.2538 30.0586L44.7217 35.5104L50.1735 37.9783L44.7217 40.4463L42.2538 45.8981ZM42.2538 41.6533L43.4204 39.145L45.9288 37.9783L43.4204 36.8117L42.2538 34.3033L41.0871 36.8117L38.5788 37.9783L41.0871 39.145L42.2538 41.6533Z" fill="white"/>
</g>
<defs>
<filter id="filter0_d_322_237" x="-15.5" y="-8.5" width="117" height="117" filterUnits="userSpaceOnUse" color-interpolation-filters="sRGB">
<feFlood flood-opacity="0" result="BackgroundImageFix"/>
<feColorMatrix in="SourceAlpha" type="matrix" values="0 0 0 0 0 0 0 0 0 0 0 0 0 0 0 0 0 0 127 0" result="hardAlpha"/>
<feOffset dy="15"/>
<feGaussianBlur stdDeviation="18.75"/>
<feComposite in2="hardAlpha" operator="out"/>
<feColorMatrix type="matrix" values="0 0 0 0 0.172549 0 0 0 0 0.172549 0 0 0 0 0.172549 0 0 0 0.1 0"/>
<feBlend mode="normal" in2="BackgroundImageFix" result="effect1_dropShadow_322_237"/>
<feBlend mode="normal" in="SourceGraphic" in2="effect1_dropShadow_322_237" result="shape"/>
</filter>
</defs>
</svg>
